<?xml version="1.0" standalone="no"?>
<!DOCTYPE svg PUBLIC "-//W3C//DTD SVG 20010904//EN"
 "http://www.w3.org/TR/2001/REC-SVG-20010904/DTD/svg10.dtd">
<svg version="1.0" xmlns="http://www.w3.org/2000/svg"
 width="1080.000000pt" height="1080.000000pt" viewBox="0 0 1080.000000 1080.000000"
 preserveAspectRatio="xMidYMid meet">

<g transform="translate(0.000000,1080.000000) scale(0.100000,-0.100000)"
fill="#000000" stroke="none">
<path d="M0 5400 l0 -5400 5400 0 5400 0 0 5400 0 5400 -5400 0 -5400 0 0
-5400z m4927 5193 c10 -16 20 -30 23 -33 11 -11 68 -137 84 -185 22 -70 23
-260 2 -342 -15 -56 -80 -168 -141 -244 -55 -68 -246 -170 -342 -183 -15 -2
-41 -9 -56 -15 -16 -6 -70 -11 -120 -11 -176 0 -333 59 -446 166 l-64 60 71
70 c82 81 274 262 317 300 17 14 50 45 75 68 25 22 63 54 85 71 22 16 47 37
55 46 8 10 51 42 95 73 44 31 87 61 95 68 21 19 220 118 236 118 7 0 21 -12
31 -27z m1354 -708 c54 -50 73 -143 40 -200 -55 -95 -216 -110 -258 -25 -7 14
-13 21 -13 15 0 -5 -4 -3 -9 5 -16 27 -22 95 -12 122 11 30 55 76 91 95 36 20
133 12 161 -12z m-651 -916 c36 -5 88 -14 115 -20 28 -6 75 -14 105 -19 75
-11 143 -29 155 -41 5 -5 18 -9 30 -9 11 0 45 -9 75 -21 30 -11 63 -23 74 -26
10 -3 39 -17 63 -30 24 -12 48 -23 54 -23 19 0 186 -121 236 -172 78 -79 96
-103 133 -176 37 -73 41 -83 61 -157 18 -65 19 -269 2 -287 -7 -6 -13 -27 -13
-44 0 -18 -4 -36 -10 -39 -5 -3 -10 -19 -10 -34 0 -16 -7 -34 -15 -41 -8 -7
-15 -18 -15 -26 0 -18 -54 -114 -79 -140 -12 -12 -21 -26 -21 -32 0 -11 -197
-214 -240 -248 -14 -10 -38 -29 -55 -42 -85 -66 -103 -80 -142 -118 -47 -45
-48 -48 -17 -184 33 -145 143 -302 244 -348 108 -48 277 -65 373 -37 46 13 55
21 78 62 80 145 96 175 134 248 45 87 118 222 146 270 10 17 37 66 60 110 23
44 47 87 53 95 6 8 16 24 22 35 105 193 154 274 170 283 8 4 45 5 82 1 37 -5
428 -8 870 -8 713 -1 836 -4 795 -23 -5 -1 -18 -24 -31 -50 -13 -27 -28 -48
-33 -48 -5 0 -9 -11 -9 -25 0 -14 -4 -25 -9 -25 -5 0 -11 -12 -14 -27 -3 -16
-15 -38 -26 -50 -12 -12 -21 -31 -21 -43 0 -11 -7 -20 -16 -20 -8 0 -12 -5 -9
-10 4 -6 -8 -40 -27 -76 -18 -36 -37 -74 -43 -85 -5 -10 -13 -19 -17 -19 -5 0
-8 -8 -8 -18 0 -19 -21 -62 -58 -122 -12 -19 -22 -43 -22 -52 0 -10 -4 -18
-10 -18 -5 0 -10 -9 -10 -19 0 -11 -4 -23 -10 -26 -10 -6 -34 -56 -45 -93 -5
-19 -9 -21 -21 -11 -12 10 -13 6 -8 -20 4 -18 2 -31 -3 -31 -6 0 -18 -20 -29
-45 -10 -25 -22 -45 -26 -45 -4 0 -8 -8 -8 -17 0 -9 -7 -24 -15 -33 -8 -9 -21
-34 -28 -56 l-14 -39 -754 -5 -754 -5 -60 -45 c-66 -50 -84 -84 -69 -127 16
-45 45 -53 207 -53 97 0 147 -4 147 -11 0 -21 -76 -101 -140 -148 -60 -44
-168 -101 -190 -101 -6 0 -18 -4 -28 -9 -83 -42 -357 -67 -522 -48 -149 18
-320 85 -460 181 -36 24 -66 43 -67 42 -1 -1 4 -19 11 -39 21 -63 84 -149 149
-205 53 -44 204 -142 222 -142 2 0 39 -16 81 -35 41 -19 81 -35 88 -35 6 0 16
-4 21 -9 6 -4 35 -16 65 -25 54 -17 66 -21 165 -67 123 -56 279 -215 314 -322
16 -48 36 -87 44 -87 16 0 358 -164 382 -183 6 -4 33 -23 60 -41 28 -17 81
-53 118 -79 38 -26 72 -47 77 -47 4 0 10 -4 12 -8 2 -5 46 -42 98 -83 52 -40
115 -96 140 -122 25 -27 70 -75 100 -106 30 -31 80 -90 111 -132 32 -42 62
-80 69 -84 12 -8 77 -104 96 -145 5 -8 22 -37 39 -65 44 -70 160 -310 184
-383 12 -33 30 -84 41 -113 37 -92 92 -340 111 -494 16 -123 16 -517 2 -640
-17 -136 -58 -326 -83 -377 -11 -23 -20 -51 -20 -63 0 -11 -4 -25 -9 -31 -4
-5 -16 -31 -26 -59 -18 -52 -60 -149 -76 -175 -5 -8 -14 -25 -19 -37 -6 -13
-15 -33 -20 -45 -17 -39 -81 -153 -89 -158 -4 -3 -15 -22 -24 -42 -10 -21 -22
-38 -27 -38 -6 0 -10 -7 -10 -15 0 -17 -132 -195 -213 -289 -73 -84 -242 -253
-305 -305 -30 -24 -66 -56 -80 -71 -15 -14 -34 -29 -42 -33 -23 -11 -50 -29
-80 -57 -49 -45 -82 -70 -91 -70 -5 0 -9 -4 -9 -10 0 -5 -9 -10 -20 -10 -11 0
-20 -4 -20 -10 0 -5 -25 -24 -56 -42 -31 -18 -72 -43 -92 -56 -21 -12 -48 -28
-62 -35 -14 -6 -27 -14 -30 -18 -8 -10 -71 -41 -104 -51 -136 -42 -355 -64
-475 -48 -47 6 -95 15 -106 20 -11 5 -43 16 -72 25 -28 9 -62 24 -75 34 -13 9
-38 24 -57 31 -77 31 -161 150 -191 272 -13 50 -36 190 -50 298 -10 79 -38
160 -76 221 -33 53 -111 116 -169 135 -66 21 -286 21 -339 -1 -19 -8 -47 -15
-60 -15 -14 0 -51 -8 -83 -17 -41 -13 -91 -18 -168 -18 -119 1 -147 9 -232 70
-74 53 -154 221 -149 311 2 21 7 120 11 219 9 195 10 186 -48 304 -34 69 -126
155 -212 196 -74 35 -78 36 -185 34 -61 -1 -112 -5 -115 -9 -3 -5 -23 -11 -45
-15 -22 -4 -42 -11 -46 -16 -3 -5 -16 -9 -29 -9 -13 0 -27 -4 -30 -10 -3 -5
-22 -10 -41 -10 -19 0 -34 -4 -34 -9 0 -6 -21 -13 -47 -17 -27 -3 -54 -12 -62
-18 -22 -17 -205 -10 -244 10 -51 26 -114 99 -132 155 -19 56 -17 128 5 309
17 135 8 280 -21 354 -28 69 -138 188 -197 213 -37 16 -152 36 -207 36 -29 1
-132 -15 -325 -49 -114 -20 -265 -15 -325 11 -117 50 -154 148 -101 268 14 32
26 64 26 72 0 8 6 18 13 22 6 4 19 22 27 38 18 37 92 158 100 165 4 3 9 12 13
20 4 8 32 49 62 90 30 41 66 93 81 115 15 22 31 42 35 43 16 6 9 20 -11 27
-38 12 -68 112 -40 130 6 3 10 14 10 23 0 9 25 53 56 97 185 268 190 279 185
435 -7 265 -5 530 6 590 16 91 32 153 44 165 5 5 9 17 9 27 0 10 4 26 9 36 6
9 28 54 50 100 23 45 52 99 66 120 14 20 37 55 51 76 15 22 172 184 349 360
379 377 420 430 431 549 7 67 -12 97 -105 171 -38 31 -72 56 -75 56 -14 0
-187 125 -232 167 -181 172 -246 359 -194 565 35 144 107 256 254 401 120 117
357 273 496 327 19 7 49 18 65 25 154 63 266 98 485 155 19 4 82 16 140 25 58
9 116 19 130 22 94 21 618 23 750 2z m-3390 -2096 c0 -5 19 -21 43 -36 44 -30
97 -95 97 -119 0 -8 7 -23 15 -34 23 -31 20 -164 -6 -221 -23 -51 -104 -133
-131 -133 -10 0 -18 -7 -18 -15 0 -10 -10 -15 -28 -15 -15 0 -33 -5 -39 -11
-6 -6 -43 -13 -82 -16 -95 -6 -179 22 -239 80 -41 40 -82 112 -82 144 0 8 -4
11 -10 8 -6 -4 -10 20 -10 64 0 41 4 71 10 71 6 0 10 7 10 16 0 23 43 94 58
94 6 0 11 3 10 8 -5 15 40 53 103 87 62 34 67 35 182 35 64 0 117 -3 117 -7z
m-834 -715 c17 -12 37 -30 44 -41 15 -25 15 -130 -1 -154 -25 -40 -73 -63
-132 -63 -53 0 -59 2 -97 42 -37 39 -40 46 -40 98 0 48 4 60 29 88 17 17 37
32 45 32 8 0 18 5 21 10 12 19 97 11 131 -12z m8103 -145 c7 -8 16 -33 18 -57
6 -48 -25 -119 -74 -171 -15 -17 -69 -75 -119 -131 l-91 -101 -6 -81 c-4 -69
-10 -90 -36 -130 -32 -50 -83 -102 -101 -102 -5 0 -10 -4 -10 -9 0 -5 -15 -14
-32 -21 -18 -6 -41 -16 -52 -22 -10 -5 -54 -9 -96 -9 -65 1 -82 -3 -106 -21
-16 -12 -31 -25 -34 -29 -4 -6 -55 -46 -161 -128 -43 -33 -122 -70 -165 -77
-34 -5 -45 -2 -66 17 -40 37 -42 69 -9 131 31 60 34 64 174 222 l97 110 0 62
c0 99 26 162 96 229 61 58 71 65 92 65 10 0 23 5 29 11 7 7 49 11 105 11 85 0
95 2 117 25 14 13 57 48 96 78 39 29 77 61 85 70 15 18 100 64 140 75 33 9 91
0 109 -17z m-7617 -1111 c20 -20 28 -95 12 -119 -20 -32 -94 -41 -127 -17 -44
33 -43 109 1 138 29 18 96 16 114 -2z m7573 -142 c19 -38 19 -74 -1 -105 -14
-21 -24 -25 -68 -25 -28 0 -57 4 -64 9 -23 14 -27 85 -6 120 17 28 23 31 71
31 48 0 54 -3 68 -30z"/>
<path d="M5065 8770 c-168 -25 -291 -62 -465 -138 -48 -21 -141 -85 -165 -113
-31 -36 -81 -119 -103 -169 -34 -79 -42 -103 -57 -193 -13 -77 -14 -100 -1
-195 25 -185 67 -274 191 -409 57 -62 79 -80 94 -76 27 7 151 135 151 156 0 4
9 16 20 27 11 11 23 34 27 50 3 17 11 30 17 30 7 0 19 17 27 38 8 20 24 57 36
82 13 25 23 53 23 63 0 10 7 20 15 23 9 4 15 19 15 39 0 19 5 37 10 40 6 3 10
16 10 29 0 12 5 27 10 32 13 13 40 116 40 152 0 16 5 33 11 39 7 7 13 29 16
50 2 21 8 42 14 48 5 5 9 17 9 27 0 10 7 21 15 24 8 4 15 12 15 19 0 7 7 16
16 19 8 3 13 10 10 15 -10 16 86 92 114 89 14 -1 35 4 48 11 17 9 116 12 400
11 460 -2 422 -3 422 13 0 23 -234 106 -380 135 -186 38 -227 42 -388 41 -92
-1 -189 -5 -217 -9z"/>
<path d="M5577 8262 c-18 -7 -47 -54 -47 -76 0 -6 -7 -24 -15 -40 -8 -15 -21
-47 -29 -70 -32 -91 -65 -175 -75 -194 -16 -31 -13 -50 9 -57 11 -4 18 -10 16
-14 -3 -4 24 -2 58 4 71 11 122 46 152 101 10 19 22 34 26 34 5 0 8 13 8 29 0
15 5 43 12 61 18 54 -6 155 -48 197 -35 35 -38 36 -67 25z"/>
<path d="M6065 8240 c-8 -16 -15 -36 -15 -45 0 -8 -5 -23 -10 -33 -17 -29
-120 -301 -120 -317 0 -23 64 -49 89 -36 11 6 31 11 46 11 14 0 28 7 31 15 4
8 12 15 20 15 8 0 14 4 14 9 0 6 12 17 28 26 21 13 32 33 50 88 32 105 36 147
18 182 -9 17 -16 35 -16 40 -1 25 -52 67 -85 70 -30 3 -38 -1 -50 -25z"/>
<path d="M5442 7631 c-26 -22 -33 -57 -16 -78 7 -10 14 -26 14 -35 0 -10 5
-18 10 -18 6 0 10 -7 10 -15 0 -19 63 -76 102 -92 48 -20 141 -16 193 8 44 21
105 93 105 124 0 8 4 16 9 19 5 3 11 19 13 36 4 23 -1 33 -18 45 -47 31 -68
18 -117 -75 -26 -49 -39 -57 -102 -59 -43 -1 -55 2 -55 14 0 8 -6 15 -14 15
-8 0 -26 27 -41 59 -30 65 -60 82 -93 52z"/>
<path d="M5384 6815 c-31 -14 -35 -23 -63 -130 -15 -60 -17 -143 -2 -158 8 -8
56 -12 160 -12 180 0 181 1 206 112 25 110 25 171 1 189 -27 19 -257 18 -302
-1z"/>
<path d="M4960 6559 c0 -5 5 -7 10 -4 6 3 10 8 10 11 0 2 -4 4 -10 4 -5 0 -10
-5 -10 -11z"/>
<path d="M3738 5623 c-32 -35 -69 -95 -92 -153 -10 -25 -22 -54 -27 -65 -19
-47 -42 -300 -30 -324 10 -18 13 -17 73 13 35 17 65 33 68 36 3 3 13 10 24 15
17 10 19 27 20 258 0 136 -2 247 -5 247 -3 0 -17 -12 -31 -27z"/>
<path d="M4350 4285 c-188 -35 -324 -111 -392 -220 -55 -89 -69 -169 -44 -260
19 -71 43 -110 106 -172 73 -73 123 -94 272 -118 75 -12 100 -11 170 1 101 17
163 34 204 57 l32 16 6 243 c4 134 9 277 12 319 l6 77 -54 25 c-30 14 -90 30
-137 36 -96 13 -93 13 -181 -4z"/>
<path d="M7480 3532 c-14 -2 -46 -10 -72 -17 -27 -8 -48 -12 -48 -9 0 10 -105
-50 -168 -95 -37 -27 -76 -66 -95 -95 -30 -48 -32 -56 -32 -146 0 -108 12
-141 77 -215 39 -45 83 -70 163 -95 22 -7 50 -16 63 -21 37 -14 204 -10 288 7
158 32 257 102 325 230 30 55 31 63 25 132 -13 163 -102 267 -266 313 -41 12
-201 18 -260 11z"/>
<path d="M6760 2321 c-143 -26 -236 -59 -325 -114 -151 -94 -215 -189 -215
-321 0 -41 4 -77 9 -80 5 -3 12 -17 15 -30 16 -64 107 -153 189 -184 23 -9 44
-19 47 -22 3 -3 39 -14 81 -24 64 -16 102 -18 240 -13 90 2 178 9 194 15 17 5
50 15 75 22 79 23 204 89 250 132 101 95 147 224 120 333 -16 62 -71 147 -119
183 -20 15 -41 32 -48 38 -13 12 -37 22 -138 55 -93 30 -244 34 -375 10z"/>
<path d="M9406 5975 c-21 -7 -55 -26 -75 -42 -20 -15 -56 -42 -81 -58 -25 -17
-57 -41 -72 -55 -15 -14 -39 -34 -52 -45 -19 -15 -22 -23 -15 -38 16 -28 98
-109 108 -105 15 5 144 132 177 173 61 78 74 100 74 131 0 45 -17 55 -64 39z"/>
<path d="M8643 5319 c-13 -5 -23 -12 -23 -17 0 -5 -29 -40 -65 -78 -36 -38
-82 -94 -103 -124 -20 -30 -40 -56 -44 -58 -13 -6 -9 -39 7 -52 32 -26 102 9
242 122 70 57 113 102 113 119 0 5 -14 16 -30 24 -17 9 -36 27 -42 40 -13 29
-26 35 -55 24z"/>
</g>
</svg>
